<?xml version="1.0" standalone="no"?>
<!DOCTYPE svg PUBLIC "-//W3C//DTD SVG 1.1//EN" "http://www.w3.org/Graphics/SVG/1.1/DTD/svg11.dtd" >
<svg>
<metadata>
Created by FontForge 20090914 at Mon Feb 13 22:40:22 2017
 By www-data
Copr.1995, The Font Bureau, Inc.
</metadata>
<defs>
<font id="AgencyFB-Black" horiz-adv-x="497" >
  <font-face 
    font-family="AgencyFB"
    font-weight="400"
    font-stretch="normal"
    units-per-em="1000"
    panose-1="2 0 6 6 3 0 0 2 0 3"
    ascent="800"
    descent="-200"
    x-height="515"
    cap-height="764"
    bbox="-82 -201 907 942"
    underline-thickness="20"
    underline-position="-113"
    unicode-range="U+0020-U+FB02"
  />
<missing-glyph horiz-adv-x="500" 
 />
    <glyph glyph-name=".notdef" horiz-adv-x="500" 
 />
    <glyph glyph-name="space" unicode=" " horiz-adv-x="216" 
 />
    <glyph glyph-name="exclam" unicode="!" horiz-adv-x="232" 
d="M205 764h-178l17 -578h144zM197 0v156h-162v-156h162z" />
    <glyph glyph-name="quotedbl" unicode="&#x22;" horiz-adv-x="392" 
d="M369 764h-161l30 -237h101zM184 764h-161l30 -237h101z" />
    <glyph glyph-name="numbersign" unicode="#" horiz-adv-x="568" 
d="M550 453v137h-68l25 174h-150l-24 -174h-37l24 174h-149l-24 -174h-92v-137h70l-18 -145h-87v-138h65l-23 -170h150l23 170h37l-23 -170h149l24 170h92v138h-71l18 145h89zM311 453l-18 -145h-36l18 145h36z" />
    <glyph glyph-name="dollar" unicode="$" horiz-adv-x="504" 
d="M477 98c0 -30.667 -7.16699 -53.167 -21.5 -67.5s-33.833 -21.5 -58.5 -21.5h-63v-71h-164v71h-64c-24.667 0 -44 7.16699 -58 21.5s-21 36.833 -21 67.5v160h170v-114h109v107l-250 168c-11.333 7.33301 -19 16 -23 26s-6 23.667 -6 41v180c0 30.667 7 53.167 21 67.5
s33.333 21.5 58 21.5h64v71h164v-71h63c25.333 0 45 -7 59 -21s21 -36.333 21 -67v-154h-171v103h-109v-102l249 -169c11.333 -8 19.333 -16.833 24 -26.5s7 -23.167 7 -40.5v-180v0z" />
    <glyph glyph-name="percent" unicode="%" horiz-adv-x="639" 
d="M180 666h-39v-183h39v183zM498 281h-39v-183h39v183zM613 70c0 -46.667 -22.998 -70 -68.998 -70h-130c-46.667 -0 -70 23.333 -70 70v235l-166 -305h-130v10l206 378c-8 -2 -17.333 -3 -28 -3h-130c-46 0 -69 23.333 -69 70v239c0 24.667 5.66699 42.5 17 53.5
s28.666 16.5 51.999 16.5h130c24 0 41.5 -5.5 52.5 -16.5s16.5 -28.833 16.5 -53.5v-231l164 301h130v-10l-207 -379c8 2.66699 18.667 4 32 4h130c23.333 0 40.666 -5.5 51.999 -16.5s17 -28.833 17 -53.5v-239v0z" />
    <glyph glyph-name="ampersand" unicode="&#x26;" horiz-adv-x="552" 
d="M311 324h-86l-30 -27v-156h116v183zM477 324v-323.999h-363c-30.667 0 -53 7 -67 21s-21 36 -21 66v200c0 10 0.5 18.167 1.5 24.5s2.83301 12.166 5.5 17.499s6.5 10.333 11.5 15l19.5 18l44 35l-45 36c-7.33301 6 -13.166 11.333 -17.499 16s-7.83301 9.5 -10.5 14.5
s-4.33398 10.667 -5.00098 17s-1 14.5 -1 24.5v172c0 30 7 52 21 66s36.333 21 67 21h279c30 0 52 -7 66 -21s21 -36 21 -66v-159h-167v105h-118v-128l31 -25h300v-146h-52z" />
    <glyph glyph-name="quotesingle" unicode="'" horiz-adv-x="207" 
d="M184 764h-161l30 -237h101z" />
    <glyph glyph-name="parenleft" unicode="(" horiz-adv-x="355" 
d="M158 -98c-18 28 -35 57.5 -51 88.5s-29.833 64.167 -41.5 99.5s-20.834 73 -27.501 113s-10 83.333 -10 130s3.33301 90 10 130s15.834 77.667 27.501 113s25.5 68.5 41.5 99.5s33 60.5 51 88.5h179v-6c-18.667 -30.667 -35.5 -61.834 -50.5 -93.501
s-27.667 -64.667 -38 -99s-18.333 -70.666 -24 -108.999s-8.5 -79.5 -8.5 -123.5s2.83301 -85.167 8.5 -123.5s13.667 -74.666 24 -108.999s23 -67.333 38 -99s31.833 -62.834 50.5 -93.501v-6h-179z" />
    <glyph glyph-name="parenright" unicode=")" horiz-adv-x="355" 
d="M327 333c0 -46.667 -3.33008 -90.001 -9.99707 -130.001s-15.834 -77.667 -27.501 -113s-25.5 -68.5 -41.5 -99.5s-33 -60.5 -51 -88.5h-179v6c36.667 60.667 66 124.834 88 192.501s33 145.167 33 232.5c0 44 -2.83301 85.167 -8.5 123.5
s-13.834 74.666 -24.501 108.999s-23.334 67.333 -38.001 99s-31.334 62.834 -50.001 93.501v6h179c18 -28 35 -57.5 51 -88.5s29.833 -64.167 41.5 -99.5s20.834 -73 27.501 -113s10 -83.333 10 -130z" />
    <glyph glyph-name="asterisk" unicode="*" horiz-adv-x="533" 
d="M508 495l-118 54l118 53l-77 124l-98 -70l6 126h-146l8 -126l-98 70l-77 -124l118 -53l-119 -54l78 -124l98 71l-8 -127h146l-6 127l98 -71z" />
    <glyph glyph-name="plus" unicode="+" horiz-adv-x="553" 
d="M514 262v142h-159v155h-157v-155h-159v-142h159v-155h157v155h159z" />
    <glyph glyph-name="comma" unicode="," horiz-adv-x="206" 
d="M192 156h-167l-14 -266h107z" />
    <glyph glyph-name="hyphen" unicode="-" horiz-adv-x="323" 
d="M298 221v152h-273v-152h273z" />
    <glyph glyph-name="hyphen" unicode="&#xad;" horiz-adv-x="323" 
d="M298 221v152h-273v-152h273z" />
    <glyph glyph-name="period" unicode="." horiz-adv-x="206" 
d="M181 0v158h-156v-158h156z" />
    <glyph glyph-name="slash" unicode="/" horiz-adv-x="475" 
d="M460 754v10h-145l-300 -754v-10h145z" />
    <glyph glyph-name="zero" unicode="0" horiz-adv-x="507" 
d="M314 620h-121v-476h121v476zM480 89c0 -30 -7 -52.333 -21 -67s-36 -22 -66 -22h-280c-57.333 0 -86 29.667 -86 89v586c0 59.333 29 89 87 89h279c30 0 52 -7.33301 66 -22s21 -37 21 -67v-586v0z" />
    <glyph glyph-name="one" unicode="1" horiz-adv-x="275" 
d="M244 0v764h-153l-79 -183v-30h61v-551h171z" />
    <glyph glyph-name="two" unicode="2" horiz-adv-x="504" 
d="M479 545c0 -11.333 -0.5 -21 -1.5 -29s-2.83301 -15.333 -5.5 -22s-6 -13.5 -10 -20.5s-9.33301 -15.167 -16 -24.5l-213 -299h244v-149h-456v112l291 415v92h-118v-104h-167v160c0 58.667 30 88 90 88h272c60 0 90 -29.333 90 -88v-131v0z" />
    <glyph glyph-name="three" unicode="3" horiz-adv-x="507" 
d="M480 89c0 -30 -7 -52.332 -21 -66.999s-36 -22 -66 -22h-280c-57.333 0 -86 29.667 -86 89v155h166v-100h121v140l-147 90v36l147 89v121h-121v-100h-166v155c0 59.333 28.667 89 86 89h280c30 0 52 -7.33301 66 -22s21 -37 21 -67v-173
c0 -23.333 -3.66699 -41.333 -11 -54s-19.666 -23.334 -36.999 -32.001l-48 -24l48 -21c17.333 -7.33301 29.666 -17.333 36.999 -30s11 -30.667 11 -54v-198v0z" />
    <glyph glyph-name="four" unicode="4" horiz-adv-x="542" 
d="M529 109v146h-59v140h-163v-140h-99l179 503v6h-178l-198 -546v-109h296v-110h163v110h59z" />
    <glyph glyph-name="five" unicode="5" horiz-adv-x="507" 
d="M480 89c0 -30 -7 -52.333 -21 -67s-36 -22 -66 -22h-280c-57.333 0 -86 29.667 -86 89v155h166v-100h121v213h-288l14 407h435v-149h-280l-4 -112h202c30 0 52 -7.33301 66 -22s21 -37 21 -67v-325v0z" />
    <glyph glyph-name="six" unicode="6" horiz-adv-x="507" 
d="M314 311h-121v-167h121v167zM480 89c0 -30 -7 -52.333 -21 -67s-36 -22 -66 -22h-278c-58.667 0 -88 29.667 -88 89v586c0 59.333 28.667 89 86 89h277c30 0 52 -7.33301 66 -22s21 -37 21 -67v-154h-166v99h-118v-165h200c30 0 52 -7.33301 66 -22s21 -37 21 -67v-277v0
z" />
    <glyph glyph-name="seven" unicode="7" horiz-adv-x="513" 
d="M491 644v120h-470v-256h163v112h124l-185 -620h177z" />
    <glyph glyph-name="eight" unicode="8" horiz-adv-x="516" 
d="M318 623h-121v-138l61 -29l60 29v138zM318 301l-60 27l-61 -27v-160h121v160zM489 89c0 -59.333 -29.002 -89.001 -87.002 -89.001h-289c-57.333 0 -86 29.667 -86 89v190c0 24.667 2.83301 43.334 8.5 56.001s17.167 23.667 34.5 33l51 24l-51 27
c-15.333 9.33301 -26.166 19.833 -32.499 31.5s-9.5 28.5 -9.5 50.5v174c0 59.333 28.667 89 86 89h287c57.333 0 86 -29.667 86 -89v-174c0 -22.667 -3.16699 -39.667 -9.5 -51s-17.166 -21.666 -32.499 -30.999l-51 -27l51 -24
c8.66699 -4.66699 15.834 -9.33398 21.501 -14.001s10.167 -10.334 13.5 -17.001s5.66602 -14.667 6.99902 -24s2 -20.666 2 -33.999v-190v0z" />
    <glyph glyph-name="nine" unicode="9" horiz-adv-x="507" 
d="M314 620h-121v-167h121v167zM480 89c0 -30 -7 -52.333 -21 -67s-36 -22 -66 -22h-277c-57.333 0 -86 29.667 -86 89v154h166v-99h118v165h-201c-57.333 0 -86 29.667 -86 89v277c0 59.333 28.667 89 86 89h278c59.333 0 89 -29.667 89 -89v-586v0z" />
    <glyph glyph-name="colon" unicode=":" horiz-adv-x="206" 
d="M181 285v159h-156v-159h156zM181 0v158h-156v-158h156z" />
    <glyph glyph-name="semicolon" unicode=";" horiz-adv-x="206" 
d="M192 156h-167l-14 -266h107zM181 285v159h-156v-159h156z" />
    <glyph glyph-name="semicolon" unicode="&#x37e;" horiz-adv-x="206" 
d="M192 156h-167l-14 -266h107zM181 285v159h-156v-159h156z" />
    <glyph glyph-name="less" unicode="&#x3c;" horiz-adv-x="393" 
d="M368 76v180l-153 86l153 87v180h-10l-333 -223v-87l333 -223h10z" />
    <glyph glyph-name="equal" unicode="=" horiz-adv-x="498" 
d="M473 382v138h-448v-138h448zM473 170v137h-448v-137h448z" />
    <glyph glyph-name="greater" unicode="&#x3e;" horiz-adv-x="393" 
d="M368 299v87l-333 223h-10v-180l154 -87l-154 -86v-180h10z" />
    <glyph glyph-name="question" unicode="?" horiz-adv-x="476" 
d="M139 0v156h166v-156h-166zM454 534c0 -10 -0.333984 -18.667 -1.00098 -26s-2 -13.833 -4 -19.5s-4.66699 -11.167 -8 -16.5s-7.66602 -11 -12.999 -17l-124 -148v-121h-164v110c0 20.667 1.66699 36.167 5 46.5s10.333 21.833 21 34.5l123 147v102h-98v-99h-164v148
c0 30 7 52.333 21 67s36.333 22 67 22h250c59.333 0 89 -29.667 89 -89v-141v0z" />
    <glyph glyph-name="at" unicode="@" horiz-adv-x="606" 
d="M319 348h-39v-95h39v95zM84 0c-39.333 0 -59 19.667 -59 59v646c0 39.333 19.667 59 59 59h438c39.333 0 59 -19.667 59 -59v-481c0 -39.333 -19.667 -59 -59 -59h-302c-36 0 -54 18 -54 54v160c0 36 18 54 54 54h99v76h-38v-52h-110v92c0 36 18 54 54 54h155
c36 0 54 -18 54 -54v-314h77v459h-416v-624h486v-70h-497z" />
    <glyph glyph-name="A" unicode="A" horiz-adv-x="514" 
d="M511 0v2l-161 762h-186l-161 -762v-2h170l18 114h132l18 -114h170zM299 259h-84l42 260z" />
    <glyph glyph-name="B" unicode="B" horiz-adv-x="513" 
d="M310 623h-113v-159h75l38 29v130zM315 302l-40 26h-78v-187h118v161zM486 89c0 -59.333 -29.333 -89 -88 -89h-371v764h368c57.333 0 86 -29.667 86 -89v-160c0 -26 -4 -45.667 -12 -59s-21 -25.666 -39 -36.999l-36 -22l39 -22c19.333 -10.667 33 -23.334 41 -38.001
s12 -34.667 12 -60v-188v0z" />
    <glyph glyph-name="C" unicode="C" horiz-adv-x="516" 
d="M489 89c0 -59.333 -29.333 -89 -88 -89h-288c-57.333 0 -86 29.667 -86 89v586c0 59.333 28.667 89 86 89h288c58.667 0 88 -29.667 88 -89v-180h-171v125h-121v-476h121v128h171v-183v0z" />
    <glyph glyph-name="D" unicode="D" horiz-adv-x="511" 
d="M318 579c0 15.333 -4 26 -12 32s-19.667 9 -35 9h-74v-476h74c15.333 0 27 3 35 9s12 16.667 12 32v394zM489 151c0 -51.333 -13.333 -89.334 -40 -114.001s-65.667 -37 -117 -37h-305v764h305c51.333 0 90.333 -12.667 117 -38s40 -63.666 40 -114.999v-460v0z" />
    <glyph glyph-name="E" unicode="E" horiz-adv-x="442" 
d="M426 0v151h-229v169h182v146h-182v147h226v151h-396v-764h399z" />
    <glyph glyph-name="F" unicode="F" horiz-adv-x="423" 
d="M420 613v151h-393v-764h170v320h175v146h-175v147h223z" />
    <glyph glyph-name="G" unicode="G" horiz-adv-x="516" 
d="M489 89c0 -59.333 -29.333 -89 -88 -89h-288c-57.333 0 -86 29.667 -86 89v586c0 59.333 29 89 87 89h287c58.667 0 88 -29.667 88 -89v-145h-171v90h-121v-476h121v154h-89v143h260v-352v0z" />
    <glyph glyph-name="H" unicode="H" horiz-adv-x="516" 
d="M489 0v764h-171v-290h-121v290h-170v-764h170v314h121v-314h171z" />
    <glyph glyph-name="I" unicode="I" horiz-adv-x="224" 
d="M197 0v764h-170v-764h170z" />
    <glyph glyph-name="J" unicode="J" horiz-adv-x="485" 
d="M458 89c0 -59.333 -29.333 -89 -88 -89h-265c-30 -0 -52 7.33301 -66 22s-21 37 -21 67v181h170v-126h100v620h170v-675v0z" />
    <glyph glyph-name="K" unicode="K" horiz-adv-x="487" 
d="M493 0v6l-155 389l133 363v6h-186l-88 -299v299h-170v-764h170v310l109 -310h187z" />
    <glyph glyph-name="L" unicode="L" horiz-adv-x="406" 
d="M397 0v153h-200v611h-170v-764h370z" />
    <glyph glyph-name="M" unicode="M" horiz-adv-x="621" 
d="M594 0v764h-173l-107 -338h-6l-108 338h-173v-764h167v375l60 -308h114l60 308v-375h166z" />
    <glyph glyph-name="N" unicode="N" horiz-adv-x="530" 
d="M503 0v764h-170v-360l-139 360h-167v-764h170v370l138 -370h168z" />
    <glyph glyph-name="O" unicode="O" horiz-adv-x="516" 
d="M318 620h-121v-476h121v476zM489 89c0 -59.333 -29 -89 -87 -89h-289c-57.333 0 -86 29.667 -86 89v586c0 59.333 28.667 89 86 89h289c58 0 87 -29.667 87 -89v-586v0z" />
    <glyph glyph-name="P" unicode="P" horiz-adv-x="500" 
d="M306 620h-109v-232h109v232zM477 335c0 -59.333 -29.333 -89 -88 -89h-192v-246h-170v764h363c58 0 87 -29.667 87 -89v-340v0z" />
    <glyph glyph-name="Q" unicode="Q" horiz-adv-x="543" 
d="M318 168l-50 31v150h9l41 -24v295h-121v-476h121v24zM531 0l-53 36l-4 -6c-13.333 -20 -37.333 -30 -72 -30h-289c-57.333 0 -86 29.667 -86 89v586c0 59.333 29 89 87 89h288c58 0 87 -29.667 87 -89v-493l51 -32v-150h-9z" />
    <glyph glyph-name="R" unicode="R" horiz-adv-x="503" 
d="M322 0l-106 290v136h89v194h-108v-620h-170v764h362c58 0 87 -29.667 87 -89v-264c0 -59.333 -29 -89 -87 -89h-9l120 -315v-7h-178z" />
    <glyph glyph-name="S" unicode="S" horiz-adv-x="504" 
d="M477 89c0 -59.333 -29.333 -88.999 -88 -88.999h-275c-58 0 -87 29.667 -87 89v168h170v-118h109v111l-250 171c-11.333 8 -19 16.667 -23 26s-6 22.666 -6 39.999v188c0 59.333 29 89 87 89h276c58 0 87 -29.333 87 -88v-162h-171v111h-109v-110l249 -170
c11.333 -8 19.333 -16.833 24 -26.5s7 -23.167 7 -40.5v-189v0z" />
    <glyph glyph-name="T" unicode="T" horiz-adv-x="448" 
d="M443 613v151h-438v-151h134v-613h170v613h134z" />
    <glyph glyph-name="U" unicode="U" horiz-adv-x="516" 
d="M489 89c0 -59.333 -29.333 -89 -88 -89h-287c-30 -0 -52 7.33301 -66 22s-21 37 -21 67v675h170v-620h121v620h171v-675v0z" />
    <glyph glyph-name="V" unicode="V" horiz-adv-x="513" 
d="M507 762v2h-174l-77 -462l-76 462h-174v-2l161 -762h180z" />
    <glyph glyph-name="W" unicode="W" horiz-adv-x="727" 
d="M724 764h-176l-57 -414l-56 414h-142l-57 -413l-57 413h-176l123 -764h181l57 320l56 -320h182z" />
    <glyph glyph-name="X" unicode="X" horiz-adv-x="508" 
d="M505 0v4l-152 388l142 368v4h-185l-56 -199l-56 199h-185v-4l142 -368l-152 -388v-4h189l62 215l62 -215h189z" />
    <glyph glyph-name="Y" unicode="Y" horiz-adv-x="508" 
d="M506 760v4h-177l-75 -270l-75 270h-177v-4l166 -497v-263h172v262z" />
    <glyph glyph-name="Z" unicode="Z" horiz-adv-x="446" 
d="M435 0v156h-212l209 505v103h-407v-155h201l-214 -517v-92h423z" />
    <glyph glyph-name="bracketleft" unicode="[" horiz-adv-x="299" 
d="M107 -121c-28.667 0 -49.5 6.33301 -62.5 19s-19.5 33.667 -19.5 63v722c0 28 6.66699 48.5 20 61.5s34 19.5 62 19.5h167v-153h-83v-579h83v-153h-167z" />
    <glyph glyph-name="backslash" unicode="\" horiz-adv-x="475" 
d="M460 0v10l-300 754h-145v-10l300 -754h145z" />
    <glyph glyph-name="bracketright" unicode="]" horiz-adv-x="299" 
d="M274 -39c0 -29.333 -6.5 -50.333 -19.5 -63s-33.833 -19 -62.5 -19h-167v153h83v579h-83v153h167c28 0 48.667 -6.5 62 -19.5s20 -33.5 20 -61.5v-722v0z" />
    <glyph glyph-name="asciicircum" unicode="^" horiz-adv-x="438" 
d="M411 494v8l-112 262h-158l-113 -262v-8h131l59 106l60 -106h133z" />
    <glyph glyph-name="underscore" unicode="_" horiz-adv-x="437" 
d="M438 -200v124h-439v-124h439z" />
    <glyph glyph-name="grave" unicode="`" horiz-adv-x="418" 
d="M377 537v6l-99 149h-202v-6l167 -149h134z" />
    <glyph glyph-name="a" unicode="a" horiz-adv-x="427" 
d="M243 214h-61v-93l61 5v88zM243 0l0.000976562 22.001l-101 -16c-10 -1.33301 -19 -2.83301 -27 -4.5s-15.667 -2.5 -23 -2.5c-23.333 0 -40.833 6 -52.5 18s-17.5 29 -17.5 51v184c0 23.333 5.66699 40.666 17 51.999s29.666 17 54.999 17h149v75h-67v-55h-147v105
c0 46 24 69 72 69h230c47.333 0 71 -23 71 -69v-446h-159z" />
    <glyph glyph-name="b" unicode="b" horiz-adv-x="446" 
d="M253 379h-60v-243h44c10.667 0 16 5.33301 16 16v227zM421 96c0 -64 -34.333 -96.001 -103 -96.001h-293v764h168v-272l103 18c8.66699 2 18 3.5 28 4.5s19 1.5 27 1.5c24 0 41.667 -6.16699 53 -18.5s17 -29.166 17 -50.499v-351v0z" />
    <glyph glyph-name="c" unicode="c" horiz-adv-x="435" 
d="M410 69c0 -46 -23.667 -68.998 -71 -68.998h-242c-25.333 0 -43.666 5.66699 -54.999 17s-17 28.666 -17 51.999v377c0 23.333 5.66699 40.666 17 51.999s29.666 17 54.999 17h242c47.333 0 71 -23 71 -69v-143h-164v76h-57v-243h57v80h164v-147v0z" />
    <glyph glyph-name="d" unicode="d" horiz-adv-x="446" 
d="M253 379h-44c-7.33301 0 -11.833 -1 -13.5 -3s-2.5 -6 -2.5 -12v-214c0 -9.33301 3.66699 -14 11 -14c4.66699 0 8.66699 0.333008 12 1l37 5v237zM253 0v22l-86 -17c-7.33301 -2 -16.833 -3.66699 -28.5 -5s-20.5 -2 -26.5 -2c-30 0 -52 7.16699 -66 21.5
s-21 34.833 -21 61.5v338c0 64 34.667 96 104 96h124v249h168v-764h-168z" />
    <glyph glyph-name="e" unicode="e" horiz-adv-x="432" 
d="M246 398h-60v-86h60v86zM407 69c0 -46 -23.667 -68.998 -71 -68.998h-239c-25.333 0 -43.666 5.66699 -54.999 17s-17 28.666 -17 51.999v377c0 23.333 5.66699 40.666 17 51.999s29.666 17 54.999 17h239c47.333 0 71 -23 71 -69v-193l-40 -41h-181v-95h60v75h161v-123
v0z" />
    <glyph glyph-name="f" unicode="f" horiz-adv-x="283" 
d="M216 618v-103h60v-141h-60v-374h-168v374h-45v141h45v180c0 46 23.667 69 71 69h168v-146h-71z" />
    <glyph glyph-name="g" unicode="g" horiz-adv-x="446" 
d="M253 372l-29 5c-3.33301 1.33301 -6.33301 2 -9 2h-9c-5.33301 0 -8.83301 -1 -10.5 -3s-2.5 -5.66699 -2.5 -11v-213c0 -7.33301 1 -11.833 3 -13.5s6.66699 -2.5 14 -2.5h43v236zM421 -111c0 -46 -24 -69.001 -72 -69.001h-245c-48 0 -72 23 -72 69v98h162v-55h59v75
h-125c-68.667 0 -103 32 -103 96v330c0 27.333 6.83301 48 20.5 62s35.5 21 65.5 21c8 0 17.5 -0.666992 28.5 -2s20.167 -2.66602 27.5 -3.99902l86 -18v23h168v-626v0z" />
    <glyph glyph-name="h" unicode="h" horiz-adv-x="446" 
d="M253 0v379h-60v-379h-168v764h168v-272l103 18l28.5 4c9.66699 1.33301 18.5 2 26.5 2c23.333 0 40.833 -6 52.5 -18s17.5 -29 17.5 -51v-447h-168z" />
    <glyph glyph-name="i" unicode="i" horiz-adv-x="218" 
d="M193 0v515h-168v-515h168zM193 545v157h-168v-157h168z" />
    <glyph glyph-name="j" unicode="j" horiz-adv-x="218" 
d="M25 545v157h168v-157h-168zM193 -111c0 -46 -23.667 -69 -71 -69h-166v136h69v559h168v-626v0z" />
    <glyph glyph-name="k" unicode="k" horiz-adv-x="429" 
d="M430 0v2l-100 270l87 241v2h-176l-48 -178v427h-168v-764h168v207l58 -207h179z" />
    <glyph glyph-name="l" unicode="l" horiz-adv-x="218" 
d="M193 0v764h-168v-764h168z" />
    <glyph glyph-name="m" unicode="m" horiz-adv-x="674" 
d="M481 0v379.002h-60v-379h-168v379h-60v-379h-168v515h168v-23l103 18c9.33301 1.33301 19.333 2.66602 30 3.99902s19.667 2 27 2c15.333 0 27.5 -2.5 36.5 -7.5s15.167 -10.167 18.5 -15.5l2 -3l114 20c8.66699 1.33301 18 2.66602 28 3.99902s19 2 27 2
c23.333 0 40.833 -6 52.5 -18s17.5 -29 17.5 -51v-447h-168z" />
    <glyph glyph-name="n" unicode="n" horiz-adv-x="446" 
d="M253 0v379h-60v-379h-168v515h168v-23l103 18l28.5 4c9.66699 1.33301 18.5 2 26.5 2c23.333 0 40.833 -6 52.5 -18s17.5 -29 17.5 -51v-447h-168z" />
    <glyph glyph-name="o" unicode="o" horiz-adv-x="438" 
d="M249 379h-60v-243h60v243zM413 69c0 -46 -23.667 -68.998 -71 -68.998h-245c-25.333 0 -43.666 5.66699 -54.999 17s-17 28.666 -17 51.999v377c0 23.333 5.66699 40.666 17 51.999s29.666 17 54.999 17h245c47.333 0 71 -23 71 -69v-377v0z" />
    <glyph glyph-name="p" unicode="p" horiz-adv-x="446" 
d="M253 379h-60v-243h45c6 0 10 1 12 3s3 6 3 12v228zM421 96c0 -64 -34.666 -96 -103.999 -96h-124v-180h-168v695h168v-23l103 18c8.66699 2 18.167 3.5 28.5 4.5s19.166 1.5 26.499 1.5c23.333 0 40.833 -6 52.5 -18s17.5 -29 17.5 -51v-351v0z" />
    <glyph glyph-name="q" unicode="q" horiz-adv-x="446" 
d="M253 371l-37.999 7c-2.66699 0.666992 -6.33398 1 -11.001 1c-7.33301 0 -11 -4 -11 -12v-216c0 -6 1 -10 3 -12s5.66699 -3 11 -3h46v235zM253.001 -180l-0.000976562 180h-125c-68.667 0 -103 32 -103 96v337c0 27.333 6.83301 48 20.5 62s35.5 21 65.5 21
c7.33301 0 16.333 -0.5 27 -1.5s20.334 -2.5 29.001 -4.5l86 -18v23h168v-695h-168z" />
    <glyph glyph-name="r" unicode="r" horiz-adv-x="426" 
d="M243 248v131h-50v-379h-168v515h168v-23l93 18l29 4c10 1.33301 18.667 2 26 2c24 0 41.667 -6 53 -18s17 -29 17 -51v-199h-168z" />
    <glyph glyph-name="s" unicode="s" horiz-adv-x="423" 
d="M400 69c0 -46 -23.666 -69 -70.999 -69h-235c-47.333 0 -71 23 -71 69v104h159v-55h59v58l-173 53c-16 6 -27.5 13.333 -34.5 22s-10.5 20.667 -10.5 36v159c0 23.333 5.66699 40.666 17 51.999s29.666 17 54.999 17h233c47.333 0 71 -23 71 -69v-104h-159v55h-57v-57
l171 -52c30.667 -9.33301 46 -28.666 46 -57.999v-161v0z" />
    <glyph glyph-name="t" unicode="t" horiz-adv-x="300" 
d="M126 0c-47.333 0 -71 23 -71 69v305h-48v141h48v117h168v-117h59v-141h-59v-233h66v-141h-163z" />
    <glyph glyph-name="u" unicode="u" horiz-adv-x="446" 
d="M253 0v23l-103 -19c-8.66699 -2 -18 -3.5 -28 -4.5s-19 -1.5 -27 -1.5c-23.333 0 -40.833 6 -52.5 18s-17.5 29 -17.5 51v448h168v-379h60v379h168v-515h-168z" />
    <glyph glyph-name="v" unicode="v" horiz-adv-x="440" 
d="M439 515h-174l-45 -262l-45 262h-174l136 -515h166z" />
    <glyph glyph-name="w" unicode="w" horiz-adv-x="590" 
d="M589 515h-162l-39 -252l-33 252h-120l-33 -252l-39 252h-162l116 -515h146l32 164l32 -164h146z" />
    <glyph glyph-name="x" unicode="x" horiz-adv-x="440" 
d="M442 0v2l-129 265l114 246v2h-175l-32 -105l-32 105h-175v-2l114 -246l-129 -265v-2h187l35 114l35 -114h187z" />
    <glyph glyph-name="y" unicode="y" horiz-adv-x="440" 
d="M439 515h-174l-45 -262l-45 262h-174l135 -511l-54 -184h174z" />
    <glyph glyph-name="z" unicode="z" horiz-adv-x="379" 
d="M366 0v132h-152l151 272v111h-348v-132h147l-152 -274v-109h354z" />
    <glyph glyph-name="braceleft" unicode="{" horiz-adv-x="408" 
d="M270 -121c-50 0 -85.167 11.998 -105.5 35.998s-30.5 61 -30.5 111v183l-114 116v24l114 115v153c0 50 10.167 87 30.5 111s55.5 36 105.5 36h113v-153h-56c-18 0 -27 -9 -27 -27v-106c0 -13.333 -0.5 -24 -1.5 -32s-2.83301 -15 -5.5 -21s-6.5 -11.833 -11.5 -17.5
s-11.833 -12.5 -20.5 -20.5l-57 -50l57 -51c8.66699 -8 15.5 -14.667 20.5 -20s8.83301 -11.166 11.5 -17.499s4.5 -13.666 5.5 -21.999s1.5 -18.833 1.5 -31.5v-133c0 -20 10.333 -30 31 -30h52v-153h-113z" />
    <glyph glyph-name="bar" unicode="|" horiz-adv-x="218" 
d="M193 -187v951h-168v-951h168z" />
    <glyph glyph-name="braceright" unicode="}" horiz-adv-x="408" 
d="M274 209v-183c0 -50 -10.167 -87 -30.5 -111s-55.5 -36 -105.5 -36h-113v153h52c20.667 0 31 10 31 30v133c0 12.667 0.5 23.167 1.5 31.5s2.83301 15.5 5.5 21.5s6.5 11.833 11.5 17.5s11.833 12.5 20.5 20.5l57 51l-57 50c-8.66699 8 -15.5 14.833 -20.5 20.5
s-8.83301 11.5 -11.5 17.5s-4.5 13 -5.5 21s-1.5 18.667 -1.5 32v106c0 18 -9 27 -27 27h-56v153h113c50 0 85.167 -12 105.5 -36s30.5 -61 30.5 -111v-153l114 -115v-24z" />
    <glyph glyph-name="asciitilde" unicode="~" horiz-adv-x="507" 
d="M468 265c0 -24.667 -7.16797 -44.499 -21.501 -59.499s-33.166 -22.5 -56.499 -22.5c-12 0 -24.667 2 -38 6s-27 9.33301 -41 16l-134 59v-77h-138v146c0 23.333 6.83301 42.666 20.5 57.999s32.5 23 56.5 23c12.667 0 25.5 -2 38.5 -6s26.5 -9 40.5 -15l135 -59v77h138
v-146v0z" />
    <glyph glyph-name="nonbreakingspace" unicode="&#xa0;" horiz-adv-x="108" 
 />
    <glyph glyph-name="exclamdown" unicode="&#xa1;" horiz-adv-x="232" 
d="M205 0l-17 578h-144l-17 -578h178zM197 608v156h-162v-156h162z" />
    <glyph glyph-name="cent" unicode="&#xa2;" horiz-adv-x="435" 
d="M410 202c0 -46.667 -23.667 -70 -71 -70h-48v-132h-146v132h-48c-25.333 0 -43.666 5.66699 -54.999 17s-17 29 -17 53v363c0 24 5.66699 41.667 17 53s29.666 17 54.999 17h48v129h146v-129h48c47.333 0 71 -23.333 71 -70v-142h-164v76h-57v-231h57v80h164v-146v0z" />
    <glyph glyph-name="sterling" unicode="&#xa3;" horiz-adv-x="511" 
d="M17 0v144h45v155h-45v142h45v234c0 59.333 29.667 89 89 89h250c30 0 52 -7 66 -21s21 -36 21 -66v-152h-166v95h-93v-179h125v-142h-125v-155h262v-144h-474z" />
    <glyph glyph-name="currency" unicode="&#xa4;" horiz-adv-x="577" 
d="M225 290l-35 -25v-124h37l42 76zM401 0l-44.002 73.002l-23 -41c-7.33301 -13.333 -15.666 -22 -24.999 -26s-24.666 -6 -45.999 -6h-149c-30 0 -52.167 6.83301 -66.5 20.5s-21.5 35.5 -21.5 65.5v196c0 12 0.5 22 1.5 30s3 15.167 6 21.5s7 12 12 17
s11.167 10.167 18.5 15.5l79 57l-55 91c-8.66699 13.333 -14.5 24.666 -17.5 33.999s-4.5 21.666 -4.5 36.999v91c0 58.667 29.667 88 89 88h213c58.667 0 88 -29.333 88 -88v-126h-163v73h-63v-68l119 -194l36 65h167l-116 -209l133 -217h-168z" />
    <glyph glyph-name="yen" unicode="&#xa5;" horiz-adv-x="508" 
d="M506 760v4h-177l-75 -270l-75 270h-177v-4l82 -245h-66v-134h111l17 -51h-128v-134h150v-196h172v196h150v134h-127l17 51h110v134h-66z" />
    <glyph glyph-name="brokenbar" unicode="&#xa6;" 
d="M337 643h-177v-60h177v60zM337 489h-177v-60h177v60zM337 335h-177v-60h177v60zM337 181h-177v-60h177v60zM472 69c0 -46 -23.667 -68.998 -71 -68.998h-304c-25.333 0 -43.666 5.66699 -54.999 17s-17 28.666 -17 51.999v626c0 23.333 5.66699 40.666 17 51.999
s29.666 17 54.999 17h304c47.333 0 71 -23 71 -69v-626v0z" />
    <glyph glyph-name="section" unicode="&#xa7;" horiz-adv-x="482" 
d="M293 422l-52 13l-52 -13v-80l52 -13l52 13v80zM457 69c0 -46 -23.668 -68.999 -71.001 -68.999h-290c-47.333 0 -71 23 -71 69v113h164v-66h104v67l-222 58c-18 4.66699 -30.167 11.167 -36.5 19.5s-9.5 20.833 -9.5 37.5v99c0 22.667 3 39 9 49s17 17.333 33 22l29 8
l-29 7c-15.333 4 -26.166 11 -32.499 21s-9.5 26.333 -9.5 49v142c0 46 23.667 69 71 69h290c47.333 0 71 -23 71 -69v-112h-164v65h-104v-67l222 -58c18 -4.66699 30.167 -11.167 36.5 -19.5s9.5 -20.833 9.5 -37.5v-98c0 -24 -3.16699 -40.833 -9.5 -50.5
s-17.5 -16.834 -33.5 -21.501l-29 -8l29 -7c16 -4 27.167 -11 33.5 -21s9.5 -26.667 9.5 -50v-141v0z" />
    <glyph glyph-name="dieresis" unicode="&#xa8;" horiz-adv-x="418" 
d="M372 537v142h-150v-142h150zM196 537v142h-150v-142h150z" />
    <glyph glyph-name="copyright" unicode="&#xa9;" horiz-adv-x="606" 
d="M437 227c0 -40 -19.667 -60 -59 -60h-153c-39.333 0 -59 20 -59 60v311c0 40 19.667 60 59 60h153c39.333 0 59 -20 59 -60v-113h-115v70h-41v-226h41v70h115v-112v0zM511 694h-416v-624h416v624zM581 59c0 -39.333 -19.667 -59 -59 -59h-438
c-39.333 0 -59 19.667 -59 59v646c0 39.333 19.667 59 59 59h438c39.333 0 59 -19.667 59 -59v-646v0z" />
    <glyph glyph-name="ordfeminine" unicode="&#xaa;" horiz-adv-x="366" 
d="M208 531h-50v-77l50 4v73zM25 221v109h316v-109h-316zM208 362v15l-78 -12l-24.5 -4c-8.33301 -1.33301 -15.5 -2 -21.5 -2c-38.667 0 -58 18 -58 54v144c0 36 20 54 60 54h122v60h-55v-45h-121v84c0 36 19.667 54 59 54h190c40 0 60 -18 60 -54v-348h-133z" />
    <glyph glyph-name="guillemotleft" unicode="&#xab;" horiz-adv-x="583" 
d="M337 76v5l-129 190l129 190v5h-187l-125 -188v-14l125 -188h187zM558 76v5l-131 190l131 190v5h-187l-125 -188v-14l125 -188h187z" />
    <glyph glyph-name="logicalnot" unicode="&#xac;" 
d="M337 643h-177v-60h177v60zM337 489h-177v-60h177v60zM337 335h-177v-60h177v60zM337 181h-177v-60h177v60zM472 69c0 -46 -23.667 -68.998 -71 -68.998h-304c-25.333 0 -43.666 5.66699 -54.999 17s-17 28.666 -17 51.999v626c0 23.333 5.66699 40.666 17 51.999
s29.666 17 54.999 17h304c47.333 0 71 -23 71 -69v-626v0z" />
    <glyph glyph-name="registered" unicode="&#xae;" horiz-adv-x="606" 
d="M343 166l-55 133v105h41v101h-51v-339h-116v431h221c39.333 0 59 -20 59 -60v-153c0 -17.333 -3.83301 -30.5 -11.5 -39.5s-17.167 -14.833 -28.5 -17.5l-9 -2l67 -154v-5h-117zM511 694h-416v-624h416v624zM581 59c0 -39.333 -19.667 -59 -59 -59h-438
c-39.333 0 -59 19.667 -59 59v646c0 39.333 19.667 59 59 59h438c39.333 0 59 -19.667 59 -59v-646v0z" />
    <glyph glyph-name="macron" unicode="&#xaf;" horiz-adv-x="418" 
d="M362 538v109h-305v-109h305z" />
    <glyph glyph-name="macron" unicode="&#x2c9;" horiz-adv-x="418" 
d="M362 538v109h-305v-109h305z" />
    <glyph glyph-name="degree" unicode="&#xb0;" horiz-adv-x="315" 
d="M188 669h-61v-67h61v67zM288 578c0 -24 -5.49902 -41.833 -16.499 -53.5s-28.5 -17.5 -52.5 -17.5h-123c-46 0 -69 23.667 -69 71v116c0 24.667 5.66699 42.5 17 53.5s28.666 16.5 51.999 16.5h123c24 0 41.5 -5.5 52.5 -16.5s16.5 -28.833 16.5 -53.5v-116v0z" />
    <glyph glyph-name="plusminus" unicode="&#xb1;" horiz-adv-x="697" 
d="M276 618h-60v-103h60v103zM504 0v618h-60v-103h44v-141h-44v-374h-168v374h-60v-374h-168v374h-45v141h45v180c0 46 23.667 69 71 69h168v-24c10.667 16 30.667 24 60 24h325v-764h-168z" />
    <glyph glyph-name="twosuperior" unicode="&#xb2;" 
d="M337 643h-177v-60h177v60zM337 489h-177v-60h177v60zM337 335h-177v-60h177v60zM337 181h-177v-60h177v60zM472 69c0 -46 -23.667 -68.998 -71 -68.998h-304c-25.333 0 -43.666 5.66699 -54.999 17s-17 28.666 -17 51.999v626c0 23.333 5.66699 40.666 17 51.999
s29.666 17 54.999 17h304c47.333 0 71 -23 71 -69v-626v0z" />
    <glyph glyph-name="threesuperior" unicode="&#xb3;" 
d="M337 643h-177v-60h177v60zM337 489h-177v-60h177v60zM337 335h-177v-60h177v60zM337 181h-177v-60h177v60zM472 69c0 -46 -23.667 -68.998 -71 -68.998h-304c-25.333 0 -43.666 5.66699 -54.999 17s-17 28.666 -17 51.999v626c0 23.333 5.66699 40.666 17 51.999
s29.666 17 54.999 17h304c47.333 0 71 -23 71 -69v-626v0z" />
    <glyph glyph-name="acute" unicode="&#xb4;" horiz-adv-x="418" 
d="M343 686v6h-202l-99 -149v-6h134z" />
    <glyph glyph-name="mu" unicode="&#xb5;" horiz-adv-x="670" 
d="M643 0v764h-172l-136 -209l-136 209h-172v-764h167v479l60 -93v-386h162v386l60 93v-479h167z" />
    <glyph glyph-name="mu" unicode="&#x3bc;" horiz-adv-x="670" 
d="M643 0v764h-172l-136 -209l-136 209h-172v-764h167v479l60 -93v-386h162v386l60 93v-479h167z" />
    <glyph glyph-name="paragraph" unicode="&#xb6;" horiz-adv-x="562" 
d="M384 612h-115v-223h115v223zM384 0v238h-25v-238h-151v238h-94c-30 0 -52 7 -66 21s-21 36 -21 66v352c0 30 7 52 21 66s36 21 66 21h421v-764h-151z" />
    <glyph glyph-name="periodcentered" unicode="&#xb7;" horiz-adv-x="231" 
d="M206 212v174h-181v-174h181z" />
    <glyph glyph-name="periodcentered" unicode="&#x2219;" horiz-adv-x="231" 
d="M206 212v174h-181v-174h181z" />
    <glyph glyph-name="cedilla" unicode="&#xb8;" horiz-adv-x="418" 
d="M337 -144c0 -38 -18.667 -57 -56 -57h-148c-38 0 -57 19 -57 57v51h105v-29h51v26l-43 16c-13.333 5.33301 -22.5 11.833 -27.5 19.5s-7.5 19.5 -7.5 35.5v35h102v-26l47 -22c14.667 -7.33301 24 -14.5 28 -21.5s6 -18.833 6 -35.5v-49v0z" />
    <glyph glyph-name="onesuperior" unicode="&#xb9;" 
d="M337 643h-177v-60h177v60zM337 489h-177v-60h177v60zM337 335h-177v-60h177v60zM337 181h-177v-60h177v60zM472 69c0 -46 -23.667 -68.998 -71 -68.998h-304c-25.333 0 -43.666 5.66699 -54.999 17s-17 28.666 -17 51.999v626c0 23.333 5.66699 40.666 17 51.999
s29.666 17 54.999 17h304c47.333 0 71 -23 71 -69v-626v0z" />
    <glyph glyph-name="ordmasculine" unicode="&#xba;" horiz-adv-x="373" 
d="M213 661h-53v-196h53v196zM25 221v109h323v-109h-323zM347 416c0 -36 -19.667 -54 -59 -54h-202c-40 0 -60 18 -60 54v294c0 36 20 54 60 54h202c39.333 0 59 -18 59 -54v-294v0z" />
    <glyph glyph-name="guillemotright" unicode="&#xbb;" horiz-adv-x="583" 
d="M558 264v14l-125 188h-187v-5l129 -190l-129 -190v-5h187zM337 264v14l-125 188h-187v-5l131 -190l-131 -190v-5h187z" />
    <glyph glyph-name="onequarter" unicode="&#xbc;" 
d="M337 643h-177v-60h177v60zM337 489h-177v-60h177v60zM337 335h-177v-60h177v60zM337 181h-177v-60h177v60zM472 69c0 -46 -23.667 -68.998 -71 -68.998h-304c-25.333 0 -43.666 5.66699 -54.999 17s-17 28.666 -17 51.999v626c0 23.333 5.66699 40.666 17 51.999
s29.666 17 54.999 17h304c47.333 0 71 -23 71 -69v-626v0z" />
    <glyph glyph-name="onehalf" unicode="&#xbd;" 
d="M337 643h-177v-60h177v60zM337 489h-177v-60h177v60zM337 335h-177v-60h177v60zM337 181h-177v-60h177v60zM472 69c0 -46 -23.667 -68.998 -71 -68.998h-304c-25.333 0 -43.666 5.66699 -54.999 17s-17 28.666 -17 51.999v626c0 23.333 5.66699 40.666 17 51.999
s29.666 17 54.999 17h304c47.333 0 71 -23 71 -69v-626v0z" />
    <glyph glyph-name="threequarters" unicode="&#xbe;" 
d="M337 643h-177v-60h177v60zM337 489h-177v-60h177v60zM337 335h-177v-60h177v60zM337 181h-177v-60h177v60zM472 69c0 -46 -23.667 -68.998 -71 -68.998h-304c-25.333 0 -43.666 5.66699 -54.999 17s-17 28.666 -17 51.999v626c0 23.333 5.66699 40.666 17 51.999
s29.666 17 54.999 17h304c47.333 0 71 -23 71 -69v-626v0z" />
    <glyph glyph-name="questiondown" unicode="&#xbf;" horiz-adv-x="476" 
d="M173 608v156h166v-156h-166zM451 89c0 -30 -6.99902 -52.333 -20.999 -67s-36.333 -22 -67 -22h-250c-59.333 0 -89 29.667 -89 89v141c0 10 0.333008 18.667 1 26s2 13.833 4 19.5s4.66699 11.167 8 16.5s7.66602 11 12.999 17l124 148v121h164v-110
c0 -20.667 -1.66699 -36.167 -5 -46.5s-10.333 -21.833 -21 -34.5l-123 -147v-102h98v99h164v-148v0z" />
    <glyph glyph-name="Agrave" unicode="&#xc0;" horiz-adv-x="514" 
d="M511 0v2l-161 762h-186l-161 -762v-2h170l18 114h132l18 -114h170zM352 786v6l-99 149h-202v-6l167 -149h134zM299 259h-84l42 260z" />
    <glyph glyph-name="Aacute" unicode="&#xc1;" horiz-adv-x="514" 
d="M511 0v2l-161 762h-186l-161 -762v-2h170l18 114h132l18 -114h170zM461 935v6h-202l-99 -149v-6h134zM299 259h-84l42 260z" />
    <glyph glyph-name="Acircumflex" unicode="&#xc2;" horiz-adv-x="514" 
d="M511 0v2l-161 762h-186l-161 -762v-2h170l18 114h132l18 -114h170zM421 787v5l-104 146h-120l-104 -146v-5h106l58 58l58 -58h106zM299 259h-84l42 260z" />
    <glyph glyph-name="Atilde" unicode="&#xc3;" horiz-adv-x="514" 
d="M257 519l-42 -260h84zM415 843c0 -19.333 -5.16699 -34 -15.5 -44s-24.833 -15 -43.5 -15c-15.333 0 -33 3.66699 -53 11l-94 33v-42h-108v97c0 19.333 5.16699 33.833 15.5 43.5s24.5 14.5 42.5 14.5c16.667 0 34.667 -3.33301 54 -10l93 -33v42h109v-97v0zM341 0
l-18 114h-132l-18 -114h-170v2l161 762h186l161 -762v-2h-170z" />
    <glyph glyph-name="Adieresis" unicode="&#xc4;" horiz-adv-x="514" 
d="M511 0v2l-161 762h-186l-161 -762v-2h170l18 114h132l18 -114h170zM244 786v142h-150v-142h150zM420 786v142h-150v-142h150zM299 259h-84l42 260z" />
    <glyph glyph-name="Aring" unicode="&#xc5;" horiz-adv-x="514" 
d="M284 846h-54v-54h54v54zM257 519l-42 -260h84zM341 0l-17.999 114h-132l-18 -114h-170v2l150 711l-2 1c-8.66699 4.66699 -15.334 11 -20.001 19s-7 19.333 -7 34v104c0 39.333 19.667 59 59 59h148c39.333 0 59 -19.667 59 -59v-104c0 -15.333 -2.5 -27 -7.5 -35
s-11.5 -14 -19.5 -18l-2 -1l150 -711v-2h-170z" />
    <glyph glyph-name="AE" unicode="&#xc6;" horiz-adv-x="707" 
d="M691 0v151h-220v170h172v146h-172v146h216v151h-437l-254 -761v-3h170l32 114h108v-114h385zM306 259h-67l67 236v-236z" />
    <glyph glyph-name="Ccedilla" unicode="&#xc7;" horiz-adv-x="516" 
d="M489 89c0 -59.333 -29.3311 -89.002 -87.998 -89.002h-93v-16l48 -22c7.33301 -3.33301 13.166 -6.66602 17.499 -9.99902s7.66602 -7.16602 9.99902 -11.499s3.83301 -9.33301 4.5 -15s1 -12.5 1 -20.5v-49c0 -38 -18.667 -57 -56 -57h-148c-37.333 0 -56 19 -56 57v51
h105v-29h50v26l-43 16c-13.333 5.33301 -22.5 11.833 -27.5 19.5s-7.5 19.5 -7.5 35.5v25h-93c-57.333 0 -86 29.667 -86 89v586c0 59.333 28.667 89 86 89h288c58.667 0 88 -29.667 88 -89v-180h-171v125h-121v-476h121v128h171v-183v0z" />
    <glyph glyph-name="Egrave" unicode="&#xc8;" horiz-adv-x="442" 
d="M426 0v151h-229v169h182v146h-182v147h226v151h-396v-764h399zM338 786v6l-99 149h-202v-6l167 -149h134z" />
    <glyph glyph-name="Eacute" unicode="&#xc9;" horiz-adv-x="442" 
d="M426 0v151h-229v169h182v146h-182v147h226v151h-396v-764h399zM409 935v6h-202l-99 -149v-6h134z" />
    <glyph glyph-name="Ecircumflex" unicode="&#xca;" horiz-adv-x="442" 
d="M426 0v151h-229v169h182v146h-182v147h226v151h-396v-764h399zM394 786v5l-104 146h-120l-104 -146v-5h106l58 58l58 -58h106z" />
    <glyph glyph-name="Edieresis" unicode="&#xcb;" horiz-adv-x="442" 
d="M426 0v151h-229v169h182v146h-182v147h226v151h-396v-764h399zM215 786v142h-150v-142h150zM391 786v142h-150v-142h150z" />
    <glyph glyph-name="Igrave" unicode="&#xcc;" horiz-adv-x="224" 
d="M197 0v764h-170v-764h170zM223 786v6l-99 149h-202v-6l167 -149h134z" />
    <glyph glyph-name="Iacute" unicode="&#xcd;" horiz-adv-x="224" 
d="M197 0v764h-170v-764h170zM301 935v6h-202l-99 -149v-6h134z" />
    <glyph glyph-name="Icircumflex" unicode="&#xce;" horiz-adv-x="224" 
d="M197 0v764h-170v-764h170zM277 786v5l-104 146h-120l-104 -146v-5h106l58 58l58 -58h106z" />
    <glyph glyph-name="Idieresis" unicode="&#xcf;" horiz-adv-x="224" 
d="M197 0v764h-170v-764h170zM98 786v142h-150v-142h150zM274 786v142h-150v-142h150z" />
    <glyph glyph-name="Eth" unicode="&#xd0;" horiz-adv-x="518" 
d="M321 573c0 15.333 -4.5 26.5 -13.5 33.5s-21.167 10.5 -36.5 10.5h-71v-160h47v-155h-47v-155h71c15.333 0 27.5 3.5 36.5 10.5s13.5 18.167 13.5 33.5v382zM491 154c0 -48 -14.5 -85.667 -43.5 -113s-67.5 -41 -115.5 -41h-303v302h-28v155h28v307h303
c48 0 86.5 -14 115.5 -42s43.5 -66 43.5 -114v-454v0z" />
    <glyph glyph-name="Ntilde" unicode="&#xd1;" horiz-adv-x="530" 
d="M422 843c0 -19.333 -5.16699 -34 -15.5 -44s-24.833 -15 -43.5 -15c-15.333 0 -33 3.66699 -53 11l-94 33v-42h-108v97c0 19.333 5.16699 33.833 15.5 43.5s24.5 14.5 42.5 14.5c16.667 0 34.667 -3.33301 54 -10l93 -33v42h109v-97v0zM335 0l-138 370v-370h-170v764h167
l139 -360v360h170v-764h-168z" />
    <glyph glyph-name="Ograve" unicode="&#xd2;" horiz-adv-x="516" 
d="M222 786l-167 149v6h202l99 -149v-6h-134zM318 620h-121v-476h121v476zM489 89c0 -59.333 -29 -89 -87 -89h-289c-57.333 0 -86 29.667 -86 89v586c0 59.333 28.667 89 86 89h289c58 0 87 -29.667 87 -89v-586v0z" />
    <glyph glyph-name="Oacute" unicode="&#xd3;" horiz-adv-x="516" 
d="M295 786h-134v6l99 149h202v-6zM318 620h-121v-476h121v476zM489 89c0 -59.333 -29 -89 -87 -89h-289c-57.333 0 -86 29.667 -86 89v586c0 59.333 28.667 89 86 89h289c58 0 87 -29.667 87 -89v-586v0z" />
    <glyph glyph-name="Ocircumflex" unicode="&#xd4;" horiz-adv-x="516" 
d="M316 786l-58 58l-58 -58h-106v5l104 146h120l104 -146v-5h-106zM318 620h-121v-476h121v476zM489 89c0 -59.333 -29 -89 -87 -89h-289c-57.333 0 -86 29.667 -86 89v586c0 59.333 28.667 89 86 89h289c58 0 87 -29.667 87 -89v-586v0z" />
    <glyph glyph-name="Otilde" unicode="&#xd5;" horiz-adv-x="515" 
d="M415 843c0 -19.333 -5.16699 -34 -15.5 -44s-24.833 -15 -43.5 -15c-15.333 0 -33 3.66699 -53 11l-94 33v-42h-108v97c0 19.333 5.16699 33.833 15.5 43.5s24.5 14.5 42.5 14.5c16.667 0 34.667 -3.33301 54 -10l93 -33v42h109v-97v0zM318 620h-121v-476h121v476z
M489 89c0 -59.333 -29 -89 -87 -89h-289c-57.333 0 -86 29.667 -86 89v586c0 59.333 28.667 89 86 89h289c58 0 87 -29.667 87 -89v-586v0z" />
    <glyph glyph-name="Odieresis" unicode="&#xd6;" horiz-adv-x="516" 
d="M95 786v142h150v-142h-150zM271 786v142h150v-142h-150zM318 620h-121v-476h121v476zM489 89c0 -59.333 -29 -89 -87 -89h-289c-57.333 0 -86 29.667 -86 89v586c0 59.333 28.667 89 86 89h289c58 0 87 -29.667 87 -89v-586v0z" />
    <glyph glyph-name="multiply" unicode="&#xd7;" 
d="M337 643h-177v-60h177v60zM337 489h-177v-60h177v60zM337 335h-177v-60h177v60zM337 181h-177v-60h177v60zM472 69c0 -46 -23.667 -68.998 -71 -68.998h-304c-25.333 0 -43.666 5.66699 -54.999 17s-17 28.666 -17 51.999v626c0 23.333 5.66699 40.666 17 51.999
s29.666 17 54.999 17h304c47.333 0 71 -23 71 -69v-626v0z" />
    <glyph glyph-name="Oslash" unicode="&#xd8;" horiz-adv-x="516" 
d="M318 620h-121v-476h121v476zM468 741c14 -14 21 -36.001 21 -66.001v-586c0 -59.333 -29 -89 -87 -89h-174l-24 -75h-175v9l26 81c-18.667 14.667 -28 39.334 -28 74.001v586c0 59.333 28.667 89 86 89h185l24 75h175v-9z" />
    <glyph glyph-name="Ugrave" unicode="&#xd9;" horiz-adv-x="516" 
d="M222 787l-167 149v6h202l99 -149v-6h-134zM489 89c0 -59.333 -29.333 -89 -88 -89h-287c-30 -0 -52 7.33301 -66 22s-21 37 -21 67v675h170v-620h121v620h171v-675v0z" />
    <glyph glyph-name="Uacute" unicode="&#xda;" horiz-adv-x="516" 
d="M292 787h-134v6l99 149h202v-6zM489 89c0 -59.333 -29.333 -89 -88 -89h-287c-30 -0 -52 7.33301 -66 22s-21 37 -21 67v675h170v-620h121v620h171v-675v0z" />
    <glyph glyph-name="Ucircumflex" unicode="&#xdb;" horiz-adv-x="516" 
d="M316 787l-58 58l-58 -58h-106v5l104 146h120l104 -146v-5h-106zM489 89c0 -59.333 -29.333 -89 -88 -89h-287c-30 -0 -52 7.33301 -66 22s-21 37 -21 67v675h170v-620h121v620h171v-675v0z" />
    <glyph glyph-name="Udieresis" unicode="&#xdc;" horiz-adv-x="516" 
d="M271 786v142h150v-142h-150zM95 786v142h150v-142h-150zM489 89c0 -59.333 -29.333 -89 -88 -89h-287c-30 -0 -52 7.33301 -66 22s-21 37 -21 67v675h170v-620h121v620h171v-675v0z" />
    <glyph glyph-name="Yacute" unicode="&#xdd;" horiz-adv-x="508" 
d="M506 760v4h-177l-75 -270l-75 270h-177v-4l166 -497v-263h172v262zM450 936v6h-202l-99 -149v-6h134z" />
    <glyph glyph-name="Thorn" unicode="&#xde;" horiz-adv-x="503" 
d="M309 504h-112v-240h112v240zM480 218c0 -36 -7.16797 -61.167 -21.501 -75.5s-39.166 -21.5 -74.499 -21.5h-187v-121h-170v764h170v-116h187c36 0 61 -7.16699 75 -21.5s21 -39.5 21 -75.5v-333v0z" />
    <glyph glyph-name="germandbls" unicode="&#xdf;" horiz-adv-x="446" 
d="M421 85c0 -29.333 -6.66895 -50.833 -20.002 -64.5s-35 -20.5 -65 -20.5h-128v126h45v180l-50 59v63l45 54v121c0 9.33301 -2 15.833 -6 19.5s-11 5.5 -21 5.5h-28v-628h-168v764h251c51.333 0 87.5 -11 108.5 -33s31.5 -58.667 31.5 -110v-112
c0 -11.333 -0.666992 -20.666 -2 -27.999s-3.5 -14.166 -6.5 -20.499s-7 -12.5 -12 -18.5s-11.167 -13 -18.5 -21l-22 -24l31 -29c6.66699 -6.66699 12.334 -12.834 17.001 -18.501s8.33398 -11.834 11.001 -18.501s4.5 -14 5.5 -22s1.5 -17.333 1.5 -28v-196v0z" />
    <glyph glyph-name="agrave" unicode="&#xe0;" horiz-adv-x="427" 
d="M243 214h-61v-93l61 5v88zM191 537l-167 149v6h202l99 -149v-6h-134zM243 0l0.000976562 22.001l-101 -16c-10 -1.33301 -19 -2.83301 -27 -4.5s-15.667 -2.5 -23 -2.5c-23.333 0 -40.833 6 -52.5 18s-17.5 29 -17.5 51v184c0 23.333 5.66699 40.666 17 51.999
s29.666 17 54.999 17h149v75h-67v-55h-147v105c0 46 24 69 72 69h230c47.333 0 71 -23 71 -69v-446h-159z" />
    <glyph glyph-name="aacute" unicode="&#xe1;" horiz-adv-x="427" 
d="M243 214h-61v-93l61 5v88zM245 537h-134v6l99 149h202v-6zM243 0l0.000976562 22.001l-101 -16c-10 -1.33301 -19 -2.83301 -27 -4.5s-15.667 -2.5 -23 -2.5c-23.333 0 -40.833 6 -52.5 18s-17.5 29 -17.5 51v184c0 23.333 5.66699 40.666 17 51.999s29.666 17 54.999 17
h149v75h-67v-55h-147v105c0 46 24 69 72 69h230c47.333 0 71 -23 71 -69v-446h-159z" />
    <glyph glyph-name="acircumflex" unicode="&#xe2;" horiz-adv-x="427" 
d="M243 214h-61v-93l61 5v88zM276 537l-58 58l-58 -58h-106v5l104 146h120l104 -146v-5h-106zM243 0l0.000976562 22.001l-101 -16c-10 -1.33301 -19 -2.83301 -27 -4.5s-15.667 -2.5 -23 -2.5c-23.333 0 -40.833 6 -52.5 18s-17.5 29 -17.5 51v184
c0 23.333 5.66699 40.666 17 51.999s29.666 17 54.999 17h149v75h-67v-55h-147v105c0 46 24 69 72 69h230c47.333 0 71 -23 71 -69v-446h-159z" />
    <glyph glyph-name="atilde" unicode="&#xe3;" horiz-adv-x="427" 
d="M243 214h-61v-93l61 5v88zM376 594c0 -19.333 -5.16699 -34 -15.5 -44s-24.833 -15 -43.5 -15c-15.333 0 -33 3.66699 -53 11l-94 33v-42h-108v97c0 19.333 5.16699 33.833 15.5 43.5s24.5 14.5 42.5 14.5c16.667 0 34.667 -3.33301 54 -10l93 -33v42h109v-97v0zM243 0
l0.000976562 22.001l-101 -16c-10 -1.33301 -19 -2.83301 -27 -4.5s-15.667 -2.5 -23 -2.5c-23.333 0 -40.833 6 -52.5 18s-17.5 29 -17.5 51v184c0 23.333 5.66699 40.666 17 51.999s29.666 17 54.999 17h149v75h-67v-55h-147v105c0 46 24 69 72 69h230
c47.333 0 71 -23 71 -69v-446h-159z" />
    <glyph glyph-name="adieresis" unicode="&#xe4;" horiz-adv-x="427" 
d="M243 214h-61v-93l61 5v88zM231 537v142h150v-142h-150zM55 537v142h150v-142h-150zM243 0l0.000976562 22.001l-101 -16c-10 -1.33301 -19 -2.83301 -27 -4.5s-15.667 -2.5 -23 -2.5c-23.333 0 -40.833 6 -52.5 18s-17.5 29 -17.5 51v184
c0 23.333 5.66699 40.666 17 51.999s29.666 17 54.999 17h149v75h-67v-55h-147v105c0 46 24 69 72 69h230c47.333 0 71 -23 71 -69v-446h-159z" />
    <glyph glyph-name="aring" unicode="&#xe5;" horiz-adv-x="427" 
d="M246 675h-54v-54h54v54zM243 214h-61v-93l61 5v88zM352 596c0 -39.333 -19.667 -59 -59 -59h-148c-39.333 0 -59 19.667 -59 59v104c0 39.333 19.667 59 59 59h148c39.333 0 59 -19.667 59 -59v-104v0zM243 0l0.000976562 22.001l-101 -16
c-10 -1.33301 -19 -2.83301 -27 -4.5s-15.667 -2.5 -23 -2.5c-23.333 0 -40.833 6 -52.5 18s-17.5 29 -17.5 51v184c0 23.333 5.66699 40.666 17 51.999s29.666 17 54.999 17h149v75h-67v-55h-147v105c0 46 24 69 72 69h230c47.333 0 71 -23 71 -69v-446h-159z" />
    <glyph glyph-name="ae" unicode="&#xe6;" horiz-adv-x="625" 
d="M439 398h-54v-80h54v80zM237 214h-55v-93l55 5v88zM600 69c0 -46 -23.666 -69 -70.999 -69h-221c-29.333 0 -49.333 8.66699 -60 26l-106 -20c-10 -2 -19 -3.66699 -27 -5s-15.667 -2 -23 -2c-23.333 0 -40.833 6 -52.5 18s-17.5 29 -17.5 51v181
c0 24 5.66699 41.5 17 52.5s29.666 16.5 54.999 16.5h143v78h-61v-59h-147v109c0 46 24 69 72 69h428c47.333 0 71 -23 71 -69v-192l-40 -40h-175v-97h54v77h161v-125v0z" />
    <glyph glyph-name="ccedilla" unicode="&#xe7;" horiz-adv-x="435" 
d="M410 69c0 -46 -23.667 -68.998 -71 -68.998h-70v-16l47 -22c14.667 -7.33301 24 -14.5 28 -21.5s6 -18.833 6 -35.5v-49c0 -38 -18.667 -57 -56 -57h-148c-38 0 -57 19 -57 57v51h105v-29h51v26l-43 16c-12.667 4.66699 -21.667 11 -27 19s-8 20 -8 36v25h-70
c-25.333 0 -43.666 5.66699 -54.999 17s-17 28.666 -17 51.999v377c0 23.333 5.66699 40.666 17 51.999s29.666 17 54.999 17h242c47.333 0 71 -23 71 -69v-143h-164v76h-57v-243h57v80h164v-147v0z" />
    <glyph glyph-name="egrave" unicode="&#xe8;" horiz-adv-x="432" 
d="M246 398h-60v-86h60v86zM189 537l-167 149v6h202l99 -149v-6h-134zM407 69c0 -46 -23.667 -68.998 -71 -68.998h-239c-25.333 0 -43.666 5.66699 -54.999 17s-17 28.666 -17 51.999v377c0 23.333 5.66699 40.666 17 51.999s29.666 17 54.999 17h239
c47.333 0 71 -23 71 -69v-193l-40 -41h-181v-95h60v75h161v-123v0z" />
    <glyph glyph-name="eacute" unicode="&#xe9;" horiz-adv-x="432" 
d="M246 398h-60v-86h60v86zM243 537h-134v6l99 149h202v-6zM407 69c0 -46 -23.667 -68.998 -71 -68.998h-239c-25.333 0 -43.666 5.66699 -54.999 17s-17 28.666 -17 51.999v377c0 23.333 5.66699 40.666 17 51.999s29.666 17 54.999 17h239c47.333 0 71 -23 71 -69v-193
l-40 -41h-181v-95h60v75h161v-123v0z" />
    <glyph glyph-name="ecircumflex" unicode="&#xea;" horiz-adv-x="432" 
d="M246 398h-60v-86h60v86zM275 537l-58 58l-58 -58h-106v5l104 146h120l104 -146v-5h-106zM407 69c0 -46 -23.667 -68.998 -71 -68.998h-239c-25.333 0 -43.666 5.66699 -54.999 17s-17 28.666 -17 51.999v377c0 23.333 5.66699 40.666 17 51.999s29.666 17 54.999 17h239
c47.333 0 71 -23 71 -69v-193l-40 -41h-181v-95h60v75h161v-123v0z" />
    <glyph glyph-name="edieresis" unicode="&#xeb;" horiz-adv-x="432" 
d="M246 398h-60v-86h60v86zM229 537v142h150v-142h-150zM53 537v142h150v-142h-150zM407 69c0 -46 -23.667 -68.998 -71 -68.998h-239c-25.333 0 -43.666 5.66699 -54.999 17s-17 28.666 -17 51.999v377c0 23.333 5.66699 40.666 17 51.999s29.666 17 54.999 17h239
c47.333 0 71 -23 71 -69v-193l-40 -41h-181v-95h60v75h161v-123v0z" />
    <glyph glyph-name="igrave" unicode="&#xec;" horiz-adv-x="218" 
d="M193 0v515h-168v-515h168zM219 537v6l-99 149h-202v-6l167 -149h134z" />
    <glyph glyph-name="iacute" unicode="&#xed;" horiz-adv-x="218" 
d="M193 0v515h-168v-515h168zM299 686v6h-202l-99 -149v-6h134z" />
    <glyph glyph-name="icircumflex" unicode="&#xee;" horiz-adv-x="218" 
d="M193 0v515h-168v-515h168zM273 537v5l-104 146h-120l-104 -146v-5h106l58 58l58 -58h106z" />
    <glyph glyph-name="idieresis" unicode="&#xef;" horiz-adv-x="218" 
d="M193 0v515h-168v-515h168zM97 537v142h-150v-142h150zM273 537v142h-150v-142h150z" />
    <glyph glyph-name="eth" unicode="&#xf0;" horiz-adv-x="441" 
d="M252 389h-59v-263h59v263zM420 556l0.000976562 -487c0 -46 -23.667 -69 -71 -69h-251c-23.333 -0 -41.333 5.83301 -54 17.5s-19 28.5 -19 50.5v378c0 24 5.66699 41.667 17 53s29.666 17 54.999 17h155v132h-58v-66h-167v113c0 46 23.667 69 71 69h250
c48 0 72 -23 72 -69v-5l36 14h5v-132z" />
    <glyph glyph-name="ntilde" unicode="&#xf1;" horiz-adv-x="446" 
d="M381 594c0 -19.333 -5.16699 -34 -15.5 -44s-24.833 -15 -43.5 -15c-15.333 0 -33 3.66699 -53 11l-94 33v-42h-108v97c0 19.333 5.16699 33.833 15.5 43.5s24.5 14.5 42.5 14.5c16.667 0 34.667 -3.33301 54 -10l93 -33v42h109v-97v0zM253 0v379h-60v-379h-168v515h168
v-23l103 18l28.5 4c9.66699 1.33301 18.5 2 26.5 2c23.333 0 40.833 -6 52.5 -18s17.5 -29 17.5 -51v-447h-168z" />
    <glyph glyph-name="ograve" unicode="&#xf2;" horiz-adv-x="438" 
d="M249 379h-60v-243h60v243zM191 537l-167 149v6h202l99 -149v-6h-134zM413 69c0 -46 -23.667 -68.998 -71 -68.998h-245c-25.333 0 -43.666 5.66699 -54.999 17s-17 28.666 -17 51.999v377c0 23.333 5.66699 40.666 17 51.999s29.666 17 54.999 17h245
c47.333 0 71 -23 71 -69v-377v0z" />
    <glyph glyph-name="oacute" unicode="&#xf3;" horiz-adv-x="438" 
d="M249 379h-60v-243h60v243zM246 537h-134v6l99 149h202v-6zM413 69c0 -46 -23.667 -68.998 -71 -68.998h-245c-25.333 0 -43.666 5.66699 -54.999 17s-17 28.666 -17 51.999v377c0 23.333 5.66699 40.666 17 51.999s29.666 17 54.999 17h245c47.333 0 71 -23 71 -69v-377
v0z" />
    <glyph glyph-name="ocircumflex" unicode="&#xf4;" horiz-adv-x="438" 
d="M249 379h-60v-243h60v243zM278 537l-58 58l-58 -58h-106v5l104 146h120l104 -146v-5h-106zM413 69c0 -46 -23.667 -68.998 -71 -68.998h-245c-25.333 0 -43.666 5.66699 -54.999 17s-17 28.666 -17 51.999v377c0 23.333 5.66699 40.666 17 51.999s29.666 17 54.999 17
h245c47.333 0 71 -23 71 -69v-377v0z" />
    <glyph glyph-name="otilde" unicode="&#xf5;" horiz-adv-x="438" 
d="M249 379h-60v-243h60v243zM376 594c0 -19.333 -5.16699 -34 -15.5 -44s-24.833 -15 -43.5 -15c-15.333 0 -33 3.66699 -53 11l-94 33v-42h-108v97c0 19.333 5.16699 33.833 15.5 43.5s24.5 14.5 42.5 14.5c16.667 0 34.667 -3.33301 54 -10l93 -33v42h109v-97v0zM413 69
c0 -46 -23.667 -68.998 -71 -68.998h-245c-25.333 0 -43.666 5.66699 -54.999 17s-17 28.666 -17 51.999v377c0 23.333 5.66699 40.666 17 51.999s29.666 17 54.999 17h245c47.333 0 71 -23 71 -69v-377v0z" />
    <glyph glyph-name="odieresis" unicode="&#xf6;" horiz-adv-x="438" 
d="M249 379h-60v-243h60v243zM232 537v142h150v-142h-150zM56 537v142h150v-142h-150zM413 69c0 -46 -23.667 -68.998 -71 -68.998h-245c-25.333 0 -43.666 5.66699 -54.999 17s-17 28.666 -17 51.999v377c0 23.333 5.66699 40.666 17 51.999s29.666 17 54.999 17h245
c47.333 0 71 -23 71 -69v-377v0z" />
    <glyph glyph-name="divide" unicode="&#xf7;" 
d="M337 643h-177v-60h177v60zM337 489h-177v-60h177v60zM337 335h-177v-60h177v60zM337 181h-177v-60h177v60zM472 69c0 -46 -23.667 -68.998 -71 -68.998h-304c-25.333 0 -43.666 5.66699 -54.999 17s-17 28.666 -17 51.999v626c0 23.333 5.66699 40.666 17 51.999
s29.666 17 54.999 17h304c47.333 0 71 -23 71 -69v-626v0z" />
    <glyph glyph-name="oslash" unicode="&#xf8;" horiz-adv-x="438" 
d="M249 379h-60v-243h60v243zM387 505c17.333 -11.333 26.001 -30.999 26.001 -58.999v-377c0 -46 -23.667 -69 -71 -69h-133l-26 -75h-161v9l27 77c-16 10.667 -24 30 -24 58v377c0 23.333 5.66699 40.666 17 51.999s29.666 17 54.999 17h129l27 75h161v-9z" />
    <glyph glyph-name="ugrave" unicode="&#xf9;" horiz-adv-x="446" 
d="M192 537l-167 149v6h202l99 -149v-6h-134zM253 0v23l-103 -19c-8.66699 -2 -18 -3.5 -28 -4.5s-19 -1.5 -27 -1.5c-23.333 0 -40.833 6 -52.5 18s-17.5 29 -17.5 51v448h168v-379h60v379h168v-515h-168z" />
    <glyph glyph-name="uacute" unicode="&#xfa;" horiz-adv-x="446" 
d="M246 537h-134v6l99 149h202v-6zM253 0v23l-103 -19c-8.66699 -2 -18 -3.5 -28 -4.5s-19 -1.5 -27 -1.5c-23.333 0 -40.833 6 -52.5 18s-17.5 29 -17.5 51v448h168v-379h60v379h168v-515h-168z" />
    <glyph glyph-name="ucircumflex" unicode="&#xfb;" horiz-adv-x="446" 
d="M281 537l-58 58l-58 -58h-106v5l104 146h120l104 -146v-5h-106zM253 0v23l-103 -19c-8.66699 -2 -18 -3.5 -28 -4.5s-19 -1.5 -27 -1.5c-23.333 0 -40.833 6 -52.5 18s-17.5 29 -17.5 51v448h168v-379h60v379h168v-515h-168z" />
    <glyph glyph-name="udieresis" unicode="&#xfc;" horiz-adv-x="446" 
d="M236 537v142h150v-142h-150zM60 537v142h150v-142h-150zM253 0v23l-103 -19c-8.66699 -2 -18 -3.5 -28 -4.5s-19 -1.5 -27 -1.5c-23.333 0 -40.833 6 -52.5 18s-17.5 29 -17.5 51v448h168v-379h60v379h168v-515h-168z" />
    <glyph glyph-name="yacute" unicode="&#xfd;" horiz-adv-x="440" 
d="M439 515h-174l-45 -262l-45 262h-174l135 -511l-54 -184h174zM424 686v6h-202l-99 -149v-6h134z" />
    <glyph glyph-name="thorn" unicode="&#xfe;" horiz-adv-x="446" 
d="M253 379h-60v-243h45c6 0 10 1 12 3s3 6 3 12v228zM421 96c0 -64 -34.666 -96 -103.999 -96h-124v-180h-168v944h168v-272l103 18c8.66699 2 18.167 3.5 28.5 4.5s19.166 1.5 26.499 1.5c23.333 0 40.833 -6 52.5 -18s17.5 -29 17.5 -51v-351v0z" />
    <glyph glyph-name="ydieresis" unicode="&#xff;" horiz-adv-x="440" 
d="M439 515h-174l-45 -262l-45 262h-174l135 -511l-54 -184h174zM207 537v142h-150v-142h150zM383 537v142h-150v-142h150z" />
    <glyph glyph-name="dotlessi" unicode="&#x131;" horiz-adv-x="218" 
d="M193 0v515h-168v-515h168z" />
    <glyph glyph-name="Lslash" unicode="&#x141;" horiz-adv-x="422" 
d="M413 0v155h-200v173l71 45v157h-8l-63 -39v273h-170v-395l-37 -24v-157h8l29 18v-206h370z" />
    <glyph glyph-name="lslash" unicode="&#x142;" horiz-adv-x="275" 
d="M270 357v147h-7l-43 -27v287h-167v-399l-48 -30v-146h9l39 23v-212h167v325z" />
    <glyph glyph-name="OE" unicode="&#x152;" horiz-adv-x="715" 
d="M312 620h-115v-476h115v476zM115 0c-30.667 -0.666992 -53 6.5 -67 21.5s-21 37.5 -21 67.5v586c0 30 7 52.333 21 67s36.333 22 67 22h580v-151h-216v-146h172v-146h-172v-170h220v-151h-584z" />
    <glyph glyph-name="oe" unicode="&#x153;" horiz-adv-x="640" 
d="M454 398h-57v-86h57v86zM246 379h-57v-243h57v243zM615 69c0 -46 -23.667 -68.998 -71 -68.998h-447c-25.333 0 -43.666 5.66699 -54.999 17s-17 28.666 -17 51.999v377c0 23.333 5.66699 40.666 17 51.999s29.666 17 54.999 17h447c47.333 2 71 -21 71 -69v-193l-40 -41
h-178v-95h57v75h161v-123v0z" />
    <glyph glyph-name="Scaron" unicode="&#x160;" horiz-adv-x="504" 
d="M312 786h-120l-104 146v5h106l58 -58l58 58h106v-5zM477 89c0 -59.333 -29.333 -88.999 -88 -88.999h-275c-58 0 -87 29.667 -87 89v168h170v-118h109v111l-250 171c-11.333 8 -19 16.667 -23 26s-6 22.666 -6 39.999v188c0 59.333 29 89 87 89h276
c58 0 87 -29.333 87 -88v-162h-171v111h-109v-110l249 -170c11.333 -8 19.333 -16.833 24 -26.5s7 -23.167 7 -40.5v-189v0z" />
    <glyph glyph-name="scaron" unicode="&#x161;" horiz-adv-x="423" 
d="M272 537h-120l-104 146v5h106l58 -58l58 58h106v-5zM400 69c0 -46 -23.666 -69 -70.999 -69h-235c-47.333 0 -71 23 -71 69v104h159v-55h59v58l-173 53c-16 6 -27.5 13.333 -34.5 22s-10.5 20.667 -10.5 36v159c0 23.333 5.66699 40.666 17 51.999s29.666 17 54.999 17
h233c47.333 0 71 -23 71 -69v-104h-159v55h-57v-57l171 -52c30.667 -9.33301 46 -28.666 46 -57.999v-161v0z" />
    <glyph glyph-name="Ydieresis" unicode="&#x178;" horiz-adv-x="508" 
d="M506 760v4h-177l-75 -270l-75 270h-177v-4l166 -497v-263h172v262zM241 786v142h-150v-142h150zM417 786v142h-150v-142h150z" />
    <glyph glyph-name="Zcaron" unicode="&#x17d;" horiz-adv-x="446" 
d="M435 0v156h-212l209 505v103h-407v-155h201l-214 -517v-92h423zM391 932v5h-106l-58 -58l-58 58h-106v-5l104 -146h120z" />
    <glyph glyph-name="zcaron" unicode="&#x17e;" horiz-adv-x="379" 
d="M366 0v132h-152l151 272v111h-348v-132h147l-152 -274v-109h354zM354 683v5h-106l-58 -58l-58 58h-106v-5l104 -146h120z" />
    <glyph glyph-name="florin" unicode="&#x192;" horiz-adv-x="415" 
d="M389 618h-92l-13 -103h81l-17 -141h-81l-60 -485c-4.66699 -46 -31 -69 -79 -69h-175l17 136h79l51 418h-55l17 141h55l22 180c6 46 32.667 69 80 69h188z" />
    <glyph glyph-name="circumflex" unicode="&#x2c6;" horiz-adv-x="418" 
d="M374 537v5l-104 146h-120l-104 -146v-5h106l58 58l58 -58h106z" />
    <glyph glyph-name="caron" unicode="&#x2c7;" horiz-adv-x="418" 
d="M374 683v5h-106l-58 -58l-58 58h-106v-5l104 -146h120z" />
    <glyph glyph-name="breve" unicode="&#x2d8;" horiz-adv-x="418" 
d="M361 613c0 -50.667 -25.667 -76 -77 -76h-148c-51.333 0 -77 25.333 -77 76v71h118v-50h66v50h118v-71v0z" />
    <glyph glyph-name="dotaccent" unicode="&#x2d9;" horiz-adv-x="418" 
d="M287 537v152h-155v-152h155z" />
    <glyph glyph-name="ring" unicode="&#x2da;" horiz-adv-x="418" 
d="M236 675h-54v-54h54v54zM342 596c0 -39.333 -19.667 -59 -59 -59h-148c-39.333 0 -59 19.667 -59 59v104c0 39.333 19.667 59 59 59h148c39.333 0 59 -19.667 59 -59v-104v0z" />
    <glyph glyph-name="ogonek" unicode="&#x2db;" horiz-adv-x="418" 
d="M129 -201c-37.333 0 -56.001 19 -56.001 57v47c0 15.333 1.83301 26.5 5.5 33.5s9.83398 14.5 18.501 22.5l55 51h144v-6l-102 -95v-20h143v-90h-208z" />
    <glyph glyph-name="tilde" unicode="&#x2dc;" horiz-adv-x="418" 
d="M366 594c0 -19.333 -5.16699 -34 -15.5 -44s-24.833 -15 -43.5 -15c-15.333 0 -33 3.66699 -53 11l-94 33v-42h-108v97c0 19.333 5.16699 33.833 15.5 43.5s24.5 14.5 42.5 14.5c16.667 0 34.667 -3.33301 54 -10l93 -33v42h109v-97v0z" />
    <glyph glyph-name="hungarumlaut" unicode="&#x2dd;" horiz-adv-x="418" 
d="M428 681v5h-169l-83 -144v-5h105zM247 681v5h-169l-83 -144v-5h105z" />
    <glyph glyph-name="Delta" unicode="&#x394;" horiz-adv-x="509" 
d="M482 337c0 -30 -6.83301 -52.167 -20.5 -66.5s-31.5 -21.5 -53.5 -21.5h-68v-249h-172v249h-67c-22 0 -39.833 7.16699 -53.5 21.5s-20.5 36.5 -20.5 66.5v427h175v-368h104v368h176v-427v0z" />
    <glyph glyph-name="Delta" unicode="&#x2206;" horiz-adv-x="509" 
d="M482 337c0 -30 -6.83301 -52.167 -20.5 -66.5s-31.5 -21.5 -53.5 -21.5h-68v-249h-172v249h-67c-22 0 -39.833 7.16699 -53.5 21.5s-20.5 36.5 -20.5 66.5v427h175v-368h104v368h176v-427v0z" />
    <glyph glyph-name="Omega" unicode="&#x3a9;" horiz-adv-x="510" 
d="M313 620h-116v-219h116v219zM313 0v258h-116v-258h-170v675c0 30 7 52.333 21 67s36 22 66 22h282c30 0 52 -7.33301 66 -22s21 -37 21 -67v-675h-170z" />
    <glyph glyph-name="Omega" unicode="&#x2126;" horiz-adv-x="510" 
d="M313 620h-116v-219h116v219zM313 0v258h-116v-258h-170v675c0 30 7 52.333 21 67s36 22 66 22h282c30 0 52 -7.33301 66 -22s21 -37 21 -67v-675h-170z" />
    <glyph glyph-name="pi" unicode="&#x3c0;" horiz-adv-x="606" 
d="M326 506h-48v-113h48v113zM440 362c0 -40 -20 -60 -60 -60h-102v-136h-116v431h219c39.333 0 59 -20 59 -60v-175v0zM511 694h-416v-624h416v624zM581 59c0 -39.333 -19.667 -59 -59 -59h-438c-39.333 0 -59 19.667 -59 59v646c0 39.333 19.667 59 59 59h438
c39.333 0 59 -19.667 59 -59v-646v0z" />
    <glyph glyph-name="endash" unicode="&#x2013;" horiz-adv-x="436" 
d="M411 217v156h-386v-156h386z" />
    <glyph glyph-name="emdash" unicode="&#x2014;" horiz-adv-x="678" 
d="M653 217v156h-628v-156h628z" />
    <glyph glyph-name="quoteleft" unicode="&#x2018;" horiz-adv-x="232" 
d="M215 764h-107l-94 -237h168z" />
    <glyph glyph-name="quoteright" unicode="&#x2019;" horiz-adv-x="232" 
d="M218 764h-168l-33 -237h108z" />
    <glyph glyph-name="quotesinglbase" unicode="&#x201a;" horiz-adv-x="232" 
d="M218 147h-168l-33 -237h108z" />
    <glyph glyph-name="quotedblleft" unicode="&#x201c;" horiz-adv-x="422" 
d="M405 764h-107l-94 -237h168zM215 764h-107l-94 -237h168z" />
    <glyph glyph-name="quotedblright" unicode="&#x201d;" horiz-adv-x="422" 
d="M408 764h-168l-33 -237h107zM218 764h-168l-33 -237h107z" />
    <glyph glyph-name="quotedblbase" unicode="&#x201e;" horiz-adv-x="422" 
d="M408 147h-168l-33 -237h107zM218 147h-168l-33 -237h107z" />
    <glyph glyph-name="dagger" unicode="&#x2020;" horiz-adv-x="455" 
d="M430 445v150h-124v169h-158v-169h-123v-150h123v-445h158v445h124z" />
    <glyph glyph-name="daggerdbl" unicode="&#x2021;" horiz-adv-x="455" 
d="M430 170v150h-124v142h124v150h-124v152h-158v-152h-123v-150h123v-142h-123v-150h123v-170h158v170h124z" />
    <glyph glyph-name="bullet" unicode="&#x2022;" horiz-adv-x="508" 
d="M483 232c0 -31.333 -7 -54 -21 -68s-36.667 -21 -68 -21h-279c-32 0 -55 7 -69 21s-21 36.667 -21 68v299c0 31.333 7 54 21 68s37 21 69 21h279c31.333 0 54 -7 68 -21s21 -36.667 21 -68v-299v0z" />
    <glyph glyph-name="ellipsis" unicode="&#x2026;" horiz-adv-x="618" 
d="M593 0v158h-156v-158h156zM181 0v158h-156v-158h156zM387 0v158h-156v-158h156z" />
    <glyph glyph-name="perthousand" unicode="&#x2030;" horiz-adv-x="934" 
d="M498 281h-39v-183h39v183zM793 281h-39v-183h39v183zM180 666h-39v-183h39v183zM907 70c0 -24 -5.5 -41.667 -16.5 -53s-28.5 -17 -52.5 -17h-129c-46.667 -0 -70 23.333 -70 70v239c0 24.667 5.66699 42.5 17 53.5s29 16.5 53 16.5h129c24 0 41.5 -5.5 52.5 -16.5
s16.5 -28.833 16.5 -53.5v-239v0zM613 70c0 -46.667 -22.998 -70 -68.998 -70h-130c-46.667 -0 -70 23.333 -70 70v235l-166 -305h-130v10l206 378c-8 -2 -17.333 -3 -28 -3h-130c-46 0 -69 23.333 -69 70v239c0 24.667 5.66699 42.5 17 53.5s28.666 16.5 51.999 16.5h130
c24 0 41.5 -5.5 52.5 -16.5s16.5 -28.833 16.5 -53.5v-231l164 301h130v-10l-207 -379c8 2.66699 18.667 4 32 4h130c23.333 0 40.666 -5.5 51.999 -16.5s17 -28.833 17 -53.5v-239v0z" />
    <glyph glyph-name="guilsinglleft" unicode="&#x2039;" horiz-adv-x="364" 
d="M339 76v5l-132 190l132 190v5h-187l-127 -188v-14l127 -188h187z" />
    <glyph glyph-name="guilsinglright" unicode="&#x203a;" horiz-adv-x="364" 
d="M339 264v14l-127 188h-187v-5l132 -190l-132 -190v-5h187z" />
    <glyph glyph-name="fraction" unicode="&#x2044;" horiz-adv-x="475" 
d="M460 754v10h-145l-300 -754v-10h145z" />
    <glyph glyph-name="fraction" unicode="&#x2215;" horiz-adv-x="475" 
d="M460 754v10h-145l-300 -754v-10h145z" />
    <glyph glyph-name="trademark" unicode="&#x2122;" horiz-adv-x="667" 
d="M649 319v445h-113l-62 -186l-62 186h-113v-445h100v199l37 -160h76l37 160v-199h100zM279 671v93h-268v-93h83v-352h102v352h83z" />
    <glyph glyph-name="partialdiff" unicode="&#x2202;" 
d="M337 643h-177v-60h177v60zM337 489h-177v-60h177v60zM337 335h-177v-60h177v60zM337 181h-177v-60h177v60zM472 69c0 -46 -23.667 -68.998 -71 -68.998h-304c-25.333 0 -43.666 5.66699 -54.999 17s-17 28.666 -17 51.999v626c0 23.333 5.66699 40.666 17 51.999
s29.666 17 54.999 17h304c47.333 0 71 -23 71 -69v-626v0z" />
    <glyph glyph-name="product" unicode="&#x220f;" 
d="M337 643h-177v-60h177v60zM337 489h-177v-60h177v60zM337 335h-177v-60h177v60zM337 181h-177v-60h177v60zM472 69c0 -46 -23.667 -68.998 -71 -68.998h-304c-25.333 0 -43.666 5.66699 -54.999 17s-17 28.666 -17 51.999v626c0 23.333 5.66699 40.666 17 51.999
s29.666 17 54.999 17h304c47.333 0 71 -23 71 -69v-626v0z" />
    <glyph glyph-name="summation" unicode="&#x2211;" 
d="M337 643h-177v-60h177v60zM337 489h-177v-60h177v60zM337 335h-177v-60h177v60zM337 181h-177v-60h177v60zM472 69c0 -46 -23.667 -68.998 -71 -68.998h-304c-25.333 0 -43.666 5.66699 -54.999 17s-17 28.666 -17 51.999v626c0 23.333 5.66699 40.666 17 51.999
s29.666 17 54.999 17h304c47.333 0 71 -23 71 -69v-626v0z" />
    <glyph glyph-name="minus" unicode="&#x2212;" 
d="M337 643h-177v-60h177v60zM337 489h-177v-60h177v60zM337 335h-177v-60h177v60zM337 181h-177v-60h177v60zM472 69c0 -46 -23.667 -68.998 -71 -68.998h-304c-25.333 0 -43.666 5.66699 -54.999 17s-17 28.666 -17 51.999v626c0 23.333 5.66699 40.666 17 51.999
s29.666 17 54.999 17h304c47.333 0 71 -23 71 -69v-626v0z" />
    <glyph glyph-name="radical" unicode="&#x221a;" horiz-adv-x="527" 
d="M533 764h-181l-143 -583l-22 83h-187v-6l132 -258h170z" />
    <glyph glyph-name="infinity" unicode="&#x221e;" horiz-adv-x="697" 
d="M276 618h-60v-103h60v103zM504 0v374h-60v-374h-168v374h-60v-374h-168v374h-45v141h45v180c0 46 23.667 69 71 69h168v-24c10.667 16 30.667 24 60 24h254c47.333 0 71 -23 71 -69v-150h-168v73h-60v-103h228v-515h-168z" />
    <glyph glyph-name="integral" unicode="&#x222b;" 
d="M337 643h-177v-60h177v60zM337 489h-177v-60h177v60zM337 335h-177v-60h177v60zM337 181h-177v-60h177v60zM472 69c0 -46 -23.667 -68.998 -71 -68.998h-304c-25.333 0 -43.666 5.66699 -54.999 17s-17 28.666 -17 51.999v626c0 23.333 5.66699 40.666 17 51.999
s29.666 17 54.999 17h304c47.333 0 71 -23 71 -69v-626v0z" />
    <glyph glyph-name="approxequal" unicode="&#x2248;" 
d="M337 643h-177v-60h177v60zM337 489h-177v-60h177v60zM337 335h-177v-60h177v60zM337 181h-177v-60h177v60zM472 69c0 -46 -23.667 -68.998 -71 -68.998h-304c-25.333 0 -43.666 5.66699 -54.999 17s-17 28.666 -17 51.999v626c0 23.333 5.66699 40.666 17 51.999
s29.666 17 54.999 17h304c47.333 0 71 -23 71 -69v-626v0z" />
    <glyph glyph-name="notequal" unicode="&#x2260;" horiz-adv-x="511" 
d="M276 618h-60v-103h60v103zM444 618v-103h60v-141h-60v-374h-168v374h-60v-374h-168v374h-45v141h45v180c0 46 23.667 69 71 69h168v-24c10.667 16 30.667 24 60 24h168v-146h-71z" />
    <glyph glyph-name="lessequal" unicode="&#x2264;" 
d="M337 643h-177v-60h177v60zM337 489h-177v-60h177v60zM337 335h-177v-60h177v60zM337 181h-177v-60h177v60zM472 69c0 -46 -23.667 -68.998 -71 -68.998h-304c-25.333 0 -43.666 5.66699 -54.999 17s-17 28.666 -17 51.999v626c0 23.333 5.66699 40.666 17 51.999
s29.666 17 54.999 17h304c47.333 0 71 -23 71 -69v-626v0z" />
    <glyph glyph-name="greaterequal" unicode="&#x2265;" 
d="M337 643h-177v-60h177v60zM337 489h-177v-60h177v60zM337 335h-177v-60h177v60zM337 181h-177v-60h177v60zM472 69c0 -46 -23.667 -68.998 -71 -68.998h-304c-25.333 0 -43.666 5.66699 -54.999 17s-17 28.666 -17 51.999v626c0 23.333 5.66699 40.666 17 51.999
s29.666 17 54.999 17h304c47.333 0 71 -23 71 -69v-626v0z" />
    <glyph glyph-name="lozenge" unicode="&#x25ca;" 
d="M337 643h-177v-60h177v60zM337 489h-177v-60h177v60zM337 335h-177v-60h177v60zM337 181h-177v-60h177v60zM472 69c0 -46 -23.667 -68.998 -71 -68.998h-304c-25.333 0 -43.666 5.66699 -54.999 17s-17 28.666 -17 51.999v626c0 23.333 5.66699 40.666 17 51.999
s29.666 17 54.999 17h304c47.333 0 71 -23 71 -69v-626v0z" />
    <glyph glyph-name="fi" unicode="&#xfb01;" horiz-adv-x="469" 
d="M276 0v374h-60v-374h-168v374h-45v141h45v180c0 46 23.667 69 71 69h254c47.333 0 71 -23 71 -69v-150h-168v73h-60v-103h228v-515h-168z" />
    <glyph glyph-name="fl" unicode="&#xfb02;" horiz-adv-x="469" 
d="M276 0v618h-60v-103h44v-141h-44v-374h-168v374h-45v141h45v180c0 46 23.667 69 71 69h325v-764h-168z" />
    <glyph glyph-name="NUL" horiz-adv-x="0" 
 />
    <glyph glyph-name="nonmarkingreturn" horiz-adv-x="216" 
 />
    <glyph glyph-name="apple" 
d="M337 643h-177v-60h177v60zM337 489h-177v-60h177v60zM337 335h-177v-60h177v60zM337 181h-177v-60h177v60zM472 69c0 -46 -23.667 -68.998 -71 -68.998h-304c-25.333 0 -43.666 5.66699 -54.999 17s-17 28.666 -17 51.999v626c0 23.333 5.66699 40.666 17 51.999
s29.666 17 54.999 17h304c47.333 0 71 -23 71 -69v-626v0z" />
    </font>
</defs>
</svg>
